<svg width="29" height="23" viewBox="0 0 29 23" fill="none" xmlns="http://www.w3.org/2000/svg">
<path d="M2.83333 22.6667C2.05417 22.6667 1.38739 22.3895 0.833 21.8351C0.278611 21.2807 0.000944444 20.6134 0 19.8333V2.83333C0 2.05417 0.277667 1.38739 0.833 0.833C1.38833 0.278611 2.05511 0.000944445 2.83333 0H25.5C26.2792 0 26.9464 0.277666 27.5017 0.833C28.0571 1.38833 28.3343 2.05511 28.3333 2.83333V19.8333C28.3333 20.6125 28.0561 21.2798 27.5017 21.8351C26.9474 22.3904 26.2801 22.6676 25.5 22.6667H2.83333ZM14.1667 12.75L2.83333 5.66667V19.8333H25.5V5.66667L14.1667 12.75ZM14.1667 9.91667L25.5 2.83333H2.83333L14.1667 9.91667ZM2.83333 5.66667V2.83333V19.8333V5.66667Z" fill="#252525"/>
</svg>
