<svg width="28" height="28" viewBox="0 0 28 28" fill="none" xmlns="http://www.w3.org/2000/svg">
<path d="M7.38021 1C8.10937 1 11.026 7.5625 11.026 8.29167C11.026 9.75 8.83854 11.2083 8.10937 12.6667C7.38021 14.125 8.83854 15.5833 10.2969 17.0417C10.8656 17.6104 13.2135 19.9583 14.6719 19.2292C16.1302 18.5 17.5885 16.3125 19.0469 16.3125C19.776 16.3125 26.3385 19.2292 26.3385 19.9583C26.3385 22.875 24.151 25.0625 21.9635 25.7917C19.776 26.5208 18.3177 26.5208 15.401 25.7917C12.4844 25.0625 10.2969 24.3333 6.65104 20.6875C3.00521 17.0417 2.27604 14.8542 1.54687 11.9375C0.817708 9.02083 0.817708 7.5625 1.54687 5.375C2.27604 3.1875 4.46354 1 7.38021 1Z" stroke="#252525" stroke-width="2" stroke-linecap="round" stroke-linejoin="round"/>
</svg>
