<svg width="22" height="22" viewBox="0 0 22 22" fill="none" xmlns="http://www.w3.org/2000/svg">
<path d="M9.67263 0.825097C10.009 -0.276074 11.5679 -0.276071 11.9042 0.8251L13.6139 6.42283C13.7637 6.91352 14.2166 7.24871 14.7297 7.24871H20.4086C21.5213 7.24871 22.0024 8.65804 21.1221 9.33846L16.406 12.9836C16.0222 13.2803 15.862 13.7835 16.0037 14.2475L17.7754 20.0482C18.1076 21.1359 16.846 22.0076 15.9461 21.312L11.5019 17.877C11.0817 17.5522 10.4951 17.5522 10.0749 17.877L5.63068 21.312C4.73083 22.0076 3.46922 21.1359 3.80143 20.0482L5.57311 14.2475C5.71481 13.7835 5.55462 13.2803 5.17079 12.9836L0.454726 9.33846C-0.425602 8.65804 0.0555592 7.24871 1.16819 7.24871H6.84716C7.36022 7.24871 7.81307 6.91352 7.96294 6.42283L9.67263 0.825097Z" fill="#FFBB56"/>
</svg>
