<svg width="181" height="62" viewBox="0 0 181 62" fill="none" xmlns="http://www.w3.org/2000/svg">
<path d="M64.788 0.74964C64.0422 1.70551 61.4581 3.34015 57.0874 2.23172C52.7167 1.1233 50.9417 2.36379 50.6006 3.12259" stroke="white" stroke-width="1.5" stroke-linecap="round" stroke-linejoin="bevel"/>
<path d="M15.2996 11.3652H18.0596L33.3596 53.3652H31.4396L27.7196 43.1652H5.63961L1.91961 53.3652H-0.000390455L15.2996 11.3652ZM6.29961 41.3652H27.0596L16.6796 12.8652L6.29961 41.3652ZM55.2441 54.1452C51.8841 54.1452 49.0141 53.3252 46.6341 51.6852C44.2741 50.0452 42.4641 47.8452 41.2041 45.0852C39.9641 42.3052 39.3441 39.2252 39.3441 35.8452V11.3652H41.1441V35.8452C41.1441 38.8452 41.6841 41.5952 42.7641 44.0952C43.8441 46.5952 45.4341 48.5952 47.5341 50.0952C49.6341 51.5952 52.2041 52.3452 55.2441 52.3452C58.3241 52.3452 60.9041 51.5852 62.9841 50.0652C65.0841 48.5452 66.6641 46.5352 67.7241 44.0352C68.8041 41.5352 69.3441 38.8052 69.3441 35.8452V11.3652H71.1441V35.8452C71.1441 38.3852 70.7841 40.7652 70.0641 42.9852C69.3641 45.1852 68.3341 47.1252 66.9741 48.8052C65.6141 50.4852 63.9441 51.7952 61.9641 52.7352C60.0041 53.6752 57.7641 54.1452 55.2441 54.1452ZM78.3676 53.3652V11.3652H91.2076C93.4076 11.3652 95.3976 11.8952 97.1776 12.9552C98.9576 13.9952 100.368 15.4252 101.408 17.2452C102.448 19.0452 102.968 21.0852 102.968 23.3652C102.968 25.5452 102.488 27.5052 101.528 29.2452C100.568 30.9852 99.2676 32.3952 97.6276 33.4752C96.0076 34.5352 94.2076 35.1452 92.2276 35.3052L102.668 53.3652H100.568L90.1276 35.3652H80.1676V53.3652H78.3676ZM80.1676 33.5652H91.2076C93.0276 33.5652 94.6876 33.1252 96.1876 32.2452C97.7076 31.3652 98.9176 30.1552 99.8176 28.6152C100.718 27.0752 101.168 25.3252 101.168 23.3652C101.168 21.4052 100.718 19.6552 99.8176 18.1152C98.9176 16.5752 97.7076 15.3652 96.1876 14.4852C94.6876 13.6052 93.0276 13.1652 91.2076 13.1652H80.1676V33.5652ZM111.356 53.3652V11.3652H136.316V13.1652H113.156V29.9652H132.836V31.7652H113.156V51.5652H136.316V53.3652H111.356ZM157.038 11.3652H159.798L175.098 53.3652H173.178L169.458 43.1652H147.378L143.658 53.3652H141.738L157.038 11.3652ZM148.038 41.3652H168.798L158.418 12.8652L148.038 41.3652Z" fill="white"/>
</svg>
