<svg width="42" height="42" viewBox="0 0 42 42" fill="none" xmlns="http://www.w3.org/2000/svg">
<path d="M0.401346 21.6149L19.6789 40.8925C20.2141 41.427 21.0813 41.4264 21.6158 40.8912C22.1504 40.356 22.1497 39.4888 21.6145 38.9542L4.67133 22.011L39.9223 22.0103C40.2849 22.0107 40.6327 21.8665 40.8886 21.6098C41.4198 21.0769 41.4185 20.2143 40.8856 19.6832C40.6307 19.4267 40.284 19.2827 39.9223 19.2827L4.66982 19.2834L21.6153 2.33792C22.1497 1.80309 22.1494 0.936142 21.6145 0.401733L21.6138 0.400978C21.079 -0.13343 20.212 -0.133106 19.6776 0.401733L0.400591 19.6787C-0.133818 20.2136 -0.133494 21.0805 0.401346 21.6149Z" fill="#010101"/>
</svg>
