<svg width="42" height="42" viewBox="0 0 42 42" fill="none" xmlns="http://www.w3.org/2000/svg">
<path d="M40.8858 19.678L21.6082 0.400483C21.073 -0.134033 20.2058 -0.133386 19.6713 0.401778C19.1367 0.936942 19.1374 1.80421 19.6726 2.33873L36.6158 19.2819L1.36478 19.2827C1.00225 19.2823 0.654392 19.4264 0.398464 19.6832C-0.132706 20.2161 -0.131413 21.0786 0.401485 21.6098C0.656445 21.8663 1.00311 22.0103 1.36478 22.0103L36.6173 22.0096L19.6718 38.955C19.1374 39.4899 19.1377 40.3568 19.6726 40.8912L19.6733 40.892C20.2082 41.4264 21.0751 41.4261 21.6095 40.8912L40.8865 21.6142C41.4209 21.0794 41.4206 20.2124 40.8858 19.678Z" fill="#010101"/>
</svg>
